<svg width="40" height="40" viewBox="0 0 40 40" fill="none" xmlns="http://www.w3.org/2000/svg">
<path d="M15.3137 29.9994L10 29.9994L10 23.9994M8.2052 25.7942L30.822 3.17743C32.3841 1.61533 34.9167 1.61534 36.4788 3.17743C38.0409 4.73953 38.0409 7.27219 36.4788 8.83429L13.5285 31.7846C12.4564 32.8567 11.9203 33.3928 11.3269 33.8537C10.7998 34.263 10.2394 34.6277 9.65169 34.9439C8.98999 35.2999 8.28279 35.573 6.86838 36.1192L2.00049 37.9989L3.56673 33.2997C4.10126 31.6959 4.36854 30.894 4.74028 30.1452C5.07042 29.4802 5.46157 28.8473 5.90867 28.2546C6.41213 27.5873 7.00982 26.9896 8.2052 25.7942Z" stroke="#131A29" stroke-width="4" stroke-linecap="round" stroke-linejoin="round"/>
</svg>
